<svg xmlns="http://www.w3.org/2000/svg" xmlns:xlink="http://www.w3.org/1999/xlink" width="45" height="45" viewBox="0 0 45 45">
  <defs>
    <filter id="패스_1199" x="0" y="0" width="45" height="45" filterUnits="userSpaceOnUse">
      <feOffset dy="3" input="SourceAlpha"/>
      <feGaussianBlur stdDeviation="3" result="blur"/>
      <feFlood flood-opacity="0.161"/>
      <feComposite operator="in" in2="blur"/>
      <feComposite in="SourceGraphic"/>
    </filter>
  </defs>
  <g id="그룹_2258" data-name="그룹 2258" transform="translate(-1206 -736)">
    <g id="그룹_1391" data-name="그룹 1391" transform="translate(17 9)">
      <g id="그룹_1390" data-name="그룹 1390" transform="translate(-24 104)">
        <g id="그룹_1387" data-name="그룹 1387" transform="translate(1048 334)">
          <g transform="matrix(1, 0, 0, 1, 165, 289)" filter="url(#패스_1199)">
            <path id="패스_1199-2" data-name="패스 1199" d="M13.5,0A13.5,13.5,0,1,1,0,13.5,13.5,13.5,0,0,1,13.5,0Z" transform="translate(9 6)" fill="#fff"/>
          </g>
        </g>
      </g>
    </g>
    <g id="Messages" transform="translate(1221 748)">
      <rect id="사각형_117" data-name="사각형 117" width="16" height="16" fill="none"/>
      <path id="패스_50" data-name="패스 50" d="M14,2H2L8,7ZM0,2A2.006,2.006,0,0,1,2,0H14a2.006,2.006,0,0,1,2,2v8a2.006,2.006,0,0,1-2,2H2a2.006,2.006,0,0,1-2-2Z" transform="translate(0 2)" fill="#58ade7" fill-rule="evenodd"/>
    </g>
  </g>
</svg>
