<svg xmlns="http://www.w3.org/2000/svg" xmlns:xlink="http://www.w3.org/1999/xlink" width="45" height="45" viewBox="0 0 45 45">
  <defs>
    <filter id="패스_1199" x="0" y="0" width="45" height="45" filterUnits="userSpaceOnUse">
      <feOffset dy="3" input="SourceAlpha"/>
      <feGaussianBlur stdDeviation="3" result="blur"/>
      <feFlood flood-opacity="0.161"/>
      <feComposite operator="in" in2="blur"/>
      <feComposite in="SourceGraphic"/>
    </filter>
  </defs>
  <g id="그룹_1389" data-name="그룹 1389" transform="translate(-1206 -554)">
    <g id="그룹_1386" data-name="그룹 1386" transform="translate(1041 265)">
      <g transform="matrix(1, 0, 0, 1, 165, 289)" filter="url(#패스_1199)">
        <path id="패스_1199-2" data-name="패스 1199" d="M13.5,0A13.5,13.5,0,1,1,0,13.5,13.5,13.5,0,0,1,13.5,0Z" transform="translate(9 6)" fill="#fff"/>
      </g>
    </g>
    <g id="Phone" transform="translate(1222.232 566.232)">
      <rect id="사각형_320" data-name="사각형 320" width="14" height="14" transform="translate(-0.232 -0.232)" fill="none"/>
      <path id="패스_110" data-name="패스 110" d="M8.1,9.964,9.59,8.594a.458.458,0,0,1,.374-.125l.249.125L13.7,10.213c.249.125.249.249.249.5a3.157,3.157,0,0,1-1,2.242,3.568,3.568,0,0,1-2.616,1,7.589,7.589,0,0,1-3.487-.872,24.883,24.883,0,0,1-3.475-2.553,20.328,20.328,0,0,1-1.88-2.679A17.216,17.216,0,0,1,.249,5.107,7.665,7.665,0,0,1,0,2.74,3.273,3.273,0,0,1,.872.872,3.788,3.788,0,0,1,3.238,0a.647.647,0,0,1,.5.249L5.6,3.737a.435.435,0,0,0,.125.249.458.458,0,0,1-.125.374L3.986,5.854a.556.556,0,0,0,0,.623A11.894,11.894,0,0,0,5.48,8.469a12.576,12.576,0,0,0,1.993,1.619C7.722,10.213,7.971,10.213,8.1,9.964Z" transform="translate(-0.163 -0.163)" fill="#58ade7"/>
    </g>
  </g>
</svg>
