<svg id="그룹_2328" data-name="그룹 2328" xmlns="http://www.w3.org/2000/svg" width="20.512" height="20.512" viewBox="0 0 20.512 20.512">
  <g id="그룹_1302" data-name="그룹 1302" transform="translate(0)">
    <g id="그룹_549" data-name="그룹 549">
      <path id="패스_330" data-name="패스 330" d="M966.581,669.729c0-.535,0-.994,0-1.453.007-.558.316-.925.755-.91.42.014.7.367.707.91.006.459,0,.918,0,1.417h4.394c0-.452,0-.906,0-1.36,0-.6.3-.976.75-.964.437.011.707.365.715.951.005.443,0,.887,0,1.371H978.3c0-.449,0-.9,0-1.356,0-.609.29-.975.746-.967s.711.361.716.947c0,.456,0,.912,0,1.417.5,0,.953,0,1.406,0a2.278,2.278,0,0,1,2.255,2.43q.007,6.631,0,13.263a2.263,2.263,0,0,1-2.281,2.448q-7.987.008-15.974,0a2.267,2.267,0,0,1-2.246-2.437q-.009-6.631,0-13.263a2.277,2.277,0,0,1,2.29-2.444C965.652,669.726,966.091,669.729,966.581,669.729Zm15.383,6.35H964.408c-.009.1-.019.166-.019.23q0,4.533,0,9.065c0,.641.269.919.877.92q7.89,0,15.78,0c.662,0,.917-.275.918-.979q0-1.749,0-3.5C981.964,679.917,981.964,678.014,981.964,676.079Zm-17.577-1.65h17.575c0-.807.012-1.577,0-2.347a.7.7,0,0,0-.648-.757c-.5-.042-1-.01-1.544-.01,0,.515.005.987,0,1.458-.008.547-.285.889-.714.9s-.738-.348-.746-.916c-.006-.47,0-.941,0-1.407h-4.4c0,.27,0,.5,0,.728s.006.46,0,.69c-.01.543-.287.892-.713.9-.441.013-.744-.349-.75-.91-.005-.471,0-.942,0-1.417h-4.358a.473.473,0,0,0-.026.082c0,.443-.006.887-.013,1.33-.01.566-.3.924-.747.916-.427-.008-.707-.354-.714-.9-.006-.472,0-.944,0-1.457-.546,0-1.046-.029-1.543.009a.7.7,0,0,0-.649.755C964.375,672.851,964.387,673.622,964.387,674.429Z" transform="translate(-962.919 -667.365)" fill="#001f46"/>
    </g>
  </g>
</svg>
