<svg xmlns="http://www.w3.org/2000/svg" width="101" height="101" viewBox="0 0 101 101">
  <g id="그룹_2283" data-name="그룹 2283" transform="translate(-551 -277)">
    <circle id="타원_553" data-name="타원 553" cx="50.5" cy="50.5" r="50.5" transform="translate(551 277)" fill="#fff"/>
    <g id="그룹_2152" data-name="그룹 2152" transform="translate(-2.481 -7)">
      <g id="그룹_2151" data-name="그룹 2151" transform="translate(579.577 309)">
        <path id="패스_1462" data-name="패스 1462" d="M4792.261-208.079v28.2l22.4,10.065v-28.2l-22.4-10.065Z" transform="translate(-4792.261 220.814)" fill="#032e64"/>
        <path id="패스_1463" data-name="패스 1463" d="M4817.783-229.234,4795.559-219.2l22.229,10.023,22.264-10.023-22.27-10.038Z" transform="translate(-4793.574 229.234)" fill="#032e64" stroke="rgba(0,0,0,0)" stroke-width="1"/>
        <g id="그룹_2091" data-name="그룹 2091" transform="translate(26.067 12.735)">
          <path id="패스_1465" data-name="패스 1465" d="M4835.559-198.014l0,28.2,22.4-10.065v-28.2Z" transform="translate(-4835.559 208.079)" fill="#032e64"/>
        </g>
      </g>
      <g id="Up_arrow" data-name="Up arrow" transform="translate(606.524 312.227)">
        <g id="패스_10" data-name="패스 10" transform="translate(0 34.739) rotate(-90)" fill="#032e64">
          <path d="M 25.08397674560547 22.25914764404297 L 24.35592842102051 21.56716728210449 L 20.75808715820312 18.14754676818848 L 20.00616836547852 17.43287658691406 L 20.74793815612793 16.70767784118652 L 23.7136173248291 13.80821704864502 L -2.346191422475385e-06 13.80821704864502 L -1.000002384185791 13.80821704864502 L -1.000002384185791 12.80821704864502 L -1.000002384185791 8.296677589416504 L -1.000002384185791 7.296677589416504 L -2.346191422475385e-06 7.296677589416504 L 23.79264831542969 7.296677589416504 L 21.0449333190918 4.482952117919922 L 20.59027671813965 4.057477474212646 L 19.79560852050781 3.313807487487793 L 20.60375785827637 2.584797382354736 L 24.29229736328125 -0.7425326108932495 L 25.0250072479248 -1.403492569923401 L 25.6956672668457 -0.6796326041221619 L 35.47237777709961 9.872817039489746 L 36.10731887817383 10.55814743041992 L 35.4666862487793 11.23816776275635 L 25.77272796630859 21.52805709838867 L 25.08397674560547 22.25914764404297 Z" stroke="none"/>
          <path d="M 24.96210861206055 -1.9073486328125e-06 L 21.27356719970703 3.327327728271484 L 21.74457740783691 3.768106460571289 L 26.16689682006836 8.296677589416504 L -3.814697265625e-06 8.296677589416504 L -3.814697265625e-06 12.80821704864502 L 26.16689682006836 12.80821704864502 L 21.44701766967773 17.4227180480957 L 25.04485702514648 20.84233665466309 L 34.73881912231445 10.55244731903076 L 24.96210861206055 -1.9073486328125e-06 M 25.08791732788086 -2.80699348449707 L 26.42921829223633 -1.359262466430664 L 36.20592880249023 9.193187713623047 L 37.47582626342773 10.56384754180908 L 36.19455718994141 11.92387771606445 L 26.5005989074707 22.21376800537109 L 25.12308883666992 23.67595672607422 L 23.66700744628906 22.2919979095459 L 20.06916809082031 18.87237739562988 L 18.56532859802246 17.44303703308105 L 20.04885864257812 15.99262714385986 L 21.26031494140625 14.80821800231934 L -3.814697265625e-06 14.80821800231934 L -2.000003814697266 14.80821800231934 L -2.000003814697266 12.80821704864502 L -2.000003814697266 8.296677589416504 L -2.000003814697266 6.296677589416504 L -3.814697265625e-06 6.296677589416504 L 21.41837692260742 6.296677589416504 L 20.34517288208008 5.197690010070801 L 19.90698623657227 4.787628173828125 L 18.31764793395996 3.300287246704102 L 19.93393707275391 1.842267990112305 L 23.62247848510742 -1.485063552856445 L 25.08791732788086 -2.80699348449707 Z" stroke="none" fill="#fff"/>
        </g>
      </g>
    </g>
  </g>
</svg>
