<svg xmlns="http://www.w3.org/2000/svg" width="101" height="101" viewBox="0 0 101 101">
  <g id="그룹_2282" data-name="그룹 2282" transform="translate(-87 -277)">
    <circle id="타원_552" data-name="타원 552" cx="50.5" cy="50.5" r="50.5" transform="translate(87 277)" fill="#fff"/>
    <g id="그룹_2259" data-name="그룹 2259">
      <path id="패스_976" data-name="패스 976" d="M584.612,70.822h-32.8a6.409,6.409,0,0,0-6.408,6.409v34.824a3.845,3.845,0,0,0,3.316,3.808v4.473A1.282,1.282,0,0,0,550,121.618h4.5a1.282,1.282,0,0,0,1.282-1.282V115.9h24.862v4.436a1.282,1.282,0,0,0,1.282,1.282h4.5a1.282,1.282,0,0,0,1.282-1.282v-4.473a3.845,3.845,0,0,0,3.316-3.808V77.231A6.409,6.409,0,0,0,584.612,70.822Zm-23.8,2.705a1.025,1.025,0,0,1,1.025-1.025h12.744a1.026,1.026,0,0,1,1.026,1.025v1.768a1.026,1.026,0,0,1-1.026,1.025H561.841a1.025,1.025,0,0,1-1.025-1.025Zm-8.563,39.411a3.53,3.53,0,1,1,3.53-3.53A3.53,3.53,0,0,1,552.252,112.938Zm31.922,0a3.53,3.53,0,1,1,3.53-3.53A3.53,3.53,0,0,1,584.174,112.938Zm4.283-13.444a1.281,1.281,0,0,1-1.282,1.281H549.251a1.281,1.281,0,0,1-1.282-1.281V80.563A2.564,2.564,0,0,1,550.533,78h35.361a2.564,2.564,0,0,1,2.563,2.564Z" transform="translate(-430.329 231.035)" fill="#032e64" fill-rule="evenodd"/>
    </g>
  </g>
</svg>
