<svg xmlns="http://www.w3.org/2000/svg" width="101" height="101" viewBox="0 0 101 101">
  <g id="그룹_2284" data-name="그룹 2284" transform="translate(-1015 -277)">
    <circle id="타원_555" data-name="타원 555" cx="50.5" cy="50.5" r="50.5" transform="translate(1015 277)" fill="#fff"/>
    <g id="그룹_2262" data-name="그룹 2262">
      <g id="그룹_2153" data-name="그룹 2153" transform="translate(384.569 -6)">
        <g id="그룹_2148" data-name="그룹 2148" transform="translate(656.577 308)">
          <path id="패스_1462" data-name="패스 1462" d="M4792.261-208.079v28.2l22.4,10.065v-28.2l-22.4-10.065Z" transform="translate(-4792.261 220.814)" fill="#032e64"/>
          <path id="패스_1463" data-name="패스 1463" d="M4817.783-229.234,4795.559-219.2l22.229,10.023,22.263-10.023-22.269-10.038Z" transform="translate(-4793.573 229.234)" fill="#032e64" stroke="rgba(0,0,0,0)" stroke-width="1"/>
          <g id="그룹_2091" data-name="그룹 2091" transform="translate(26.067 12.735)">
            <path id="패스_1465" data-name="패스 1465" d="M4835.559-198.014l0,28.2,22.4-10.065v-28.2Z" transform="translate(-4835.559 208.079)" fill="#032e64"/>
          </g>
        </g>
        <g id="Up_arrow" data-name="Up arrow" transform="translate(704.366 345.966) rotate(180)">
          <g id="패스_10" data-name="패스 10" transform="translate(0 34.739) rotate(-90)" fill="#032e64">
            <path d="M 25.083984375 22.25915145874023 L 24.35593605041504 21.56717300415039 L 20.75809478759766 18.14755249023438 L 20.00617599487305 17.43288230895996 L 20.74794578552246 16.70768165588379 L 23.71362495422363 13.8082218170166 L 5.28320333614829e-06 13.8082218170166 L -0.999994695186615 13.8082218170166 L -0.999994695186615 12.8082218170166 L -0.999994695186615 8.296682357788086 L -0.999994695186615 7.296682357788086 L 5.28320333614829e-06 7.296682357788086 L 23.79265594482422 7.296682357788086 L 21.04494094848633 4.482956886291504 L 20.59028434753418 4.057482242584229 L 19.79561614990234 3.313812255859375 L 20.6037654876709 2.584802150726318 L 24.29231452941895 -0.7425278425216675 L 25.0250358581543 -1.403487801551819 L 25.6956844329834 -0.6796278357505798 L 35.47239685058594 9.872821807861328 L 36.10733413696289 10.5581521987915 L 35.46670532226562 11.23817253112793 L 25.77273559570312 21.52806282043457 L 25.083984375 22.25915145874023 Z" stroke="none"/>
            <path d="M 24.96212387084961 1.9073486328125e-06 L 21.27357482910156 3.32733154296875 L 21.74458503723145 3.768102645874023 L 26.16691589355469 8.296682357788086 L -3.814697265625e-06 8.296682357788086 L -3.814697265625e-06 12.8082218170166 L 26.16691589355469 12.8082218170166 L 21.44702529907227 17.42272186279297 L 25.04486465454102 20.84234237670898 L 34.73882675170898 10.55245208740234 L 24.96212387084961 1.9073486328125e-06 M 25.08793640136719 -2.806987762451172 L 26.42923545837402 -1.359258651733398 L 36.20593643188477 9.193192481994629 L 37.47583389282227 10.56385231018066 L 36.19456481933594 11.92388248443604 L 26.50060653686523 22.21377182006836 L 25.12309646606445 23.67596244812012 L 23.66701507568359 22.29200172424316 L 20.06917572021484 18.87238311767578 L 18.56533622741699 17.44304275512695 L 20.04886627197266 15.99263191223145 L 21.26032638549805 14.8082218170166 L -3.814697265625e-06 14.8082218170166 L -2.000003814697266 14.8082218170166 L -2.000003814697266 12.8082218170166 L -2.000003814697266 8.296682357788086 L -2.000003814697266 6.296682357788086 L -3.814697265625e-06 6.296682357788086 L 21.41839408874512 6.296682357788086 L 20.34508895874023 5.197591781616211 L 19.90701484680176 4.787641525268555 L 18.31763458251953 3.300302505493164 L 19.93394470214844 1.84227180480957 L 23.62249565124512 -1.485057830810547 L 25.08793640136719 -2.806987762451172 Z" stroke="none" fill="#fff"/>
          </g>
        </g>
      </g>
    </g>
  </g>
</svg>
