<svg xmlns="http://www.w3.org/2000/svg" width="53.054" height="60.9" viewBox="0 0 53.054 60.9">
  <g id="그룹_2286" data-name="그룹 2286" transform="translate(0.75 0.75)">
    <path id="패스_272" data-name="패스 272" d="M-189.378-540.638h0a.009.009,0,0,0,0-.016l-4.136-2.388-8.008,4.55,4.07,2.35v4.57l-17.633,10.181-4.856-2.8c-.059-.118-8-3.171-7.954-7.823a12.11,12.11,0,0,0-.044-1.275v10.121a6.416,6.416,0,0,0,3.208,5.556l9.646,5.569,25.721-14.85V-540.63A.009.009,0,0,0-189.378-540.638Z" transform="translate(240.861 571.445)" fill="none" stroke="#001f46" stroke-linecap="round" stroke-linejoin="round" stroke-miterlimit="10" stroke-width="1.5"/>
    <path id="패스_273" data-name="패스 273" d="M-227.894-554.176c-.043,4.555,7.568,7.577,7.94,7.812a.009.009,0,0,0,.014-.008v-29.471l-8,4.588v15.805A12.208,12.208,0,0,1-227.894-554.176Z" transform="translate(240.861 593.604)" fill="none" stroke="#001f46" stroke-linecap="round" stroke-linejoin="round" stroke-miterlimit="10" stroke-width="1.5"/>
    <path id="패스_274" data-name="패스 274" d="M-233.843-625.926l-8.058-4.656-.04.023-.04-.023-25.786,14.752.08.046-.074,29.588,8.084,4.679.075-29.641,17.678-10.114,17.8,10.256,7.914-4.725Z" transform="translate(267.767 630.582)" fill="none" stroke="#001f46" stroke-linecap="round" stroke-linejoin="round" stroke-miterlimit="10" stroke-width="1.5"/>
    <path id="패스_275" data-name="패스 275" d="M-161.3-580.1l-13.434,7.694-.027,10.9,21.375-12.145V-584.81a.009.009,0,0,0-.014-.008Z" transform="translate(204.936 599.667)" fill="none" stroke="#001f46" stroke-linecap="round" stroke-linejoin="round" stroke-miterlimit="10" stroke-width="1.5"/>
  </g>
</svg>
