<svg xmlns="http://www.w3.org/2000/svg" width="13.784" height="15.167" viewBox="0 0 13.784 15.167">
  <g id="그룹_2281" data-name="그룹 2281" transform="translate(9319.784 -9404.001)">
    <path id="패스_327" data-name="패스 327" d="M708.88,283.578a5.63,5.63,0,0,0-1.485-3.938,1.264,1.264,0,0,1-.307-.485.618.618,0,0,1,.342-.738.658.658,0,0,1,.835.152,6.8,6.8,0,0,1,1.742,3.016,6.892,6.892,0,1,1-13.51,1.2,6.716,6.716,0,0,1,1.87-4.131c.357-.378.751-.43,1.061-.147s.3.693-.064,1.093a5.457,5.457,0,0,0,.274,7.857,5.21,5.21,0,0,0,5.387,1.193,5.327,5.327,0,0,0,3.737-4.153A7.8,7.8,0,0,0,708.88,283.578Z" transform="translate(-10016.256 9128.867)" fill="#fff"/>
    <path id="패스_328" data-name="패스 328" d="M781.744,239.206c0,1.091.007,2.181-.007,3.272a1.2,1.2,0,0,1-.149.588.6.6,0,0,1-.707.254.654.654,0,0,1-.514-.639c-.021-.354-.007-.711-.008-1.066q0-2.757,0-5.515c0-.1,0-.2,0-.294a.709.709,0,0,1,.681-.725.7.7,0,0,1,.7.742c.01.821,0,1.642,0,2.463Z" transform="translate(-10093.944 9168.919)" fill="#fff"/>
  </g>
</svg>
