<svg xmlns="http://www.w3.org/2000/svg" width="13.995" height="14.001" viewBox="0 0 13.995 14.001">
  <path id="패스_1215" data-name="패스 1215" d="M395.785,423.138c-.323-.121-.364-.387-.361-.7.012-1,.015-2.006,0-3.008-.005-.366.054-.654.468-.707a5.285,5.285,0,0,0-10.563,0c.5.042.48.411.477.79-.008.991,0,1.982,0,2.973,0,.51-.11.623-.607.631-1.168.019-1.575-.384-1.576-1.558,0-.478,0-.956,0-1.434a1.287,1.287,0,0,1,1.143-1.411,5.82,5.82,0,0,1,2.26-4.386,5.69,5.69,0,0,1,3.808-1.238,5.886,5.886,0,0,1,5.648,5.607,1.347,1.347,0,0,1,1.134,1.578c0,.49,0,.979,0,1.469a1.266,1.266,0,0,1-1.233,1.4c-.037.126-.073.27-.121.409a4.25,4.25,0,0,1-3.692,3.035.8.8,0,0,0-.631.292.676.676,0,0,1-.463.188c-.418.025-.839.015-1.259.006a.657.657,0,1,1,.008-1.313c.408-.01.816-.012,1.224,0a.58.58,0,0,1,.389.113c.225.276.489.193.762.152A3.718,3.718,0,0,0,395.785,423.138Z" transform="translate(-383.619 -413.084)" fill="#fff"/>
</svg>
