<svg xmlns="http://www.w3.org/2000/svg" xmlns:xlink="http://www.w3.org/1999/xlink" width="47.036" height="47.037" viewBox="0 0 47.036 47.037">
  <defs>
    <linearGradient id="linear-gradient" x1="0.787" y1="0.09" x2="0.213" y2="0.91" gradientUnits="objectBoundingBox">
      <stop offset="0" stop-color="#fff"/>
      <stop offset="0.177" stop-color="#f2f2f2"/>
      <stop offset="0.466" stop-color="#f2f2f2"/>
      <stop offset="0.617" stop-color="#fff"/>
      <stop offset="0.769" stop-color="#fff"/>
      <stop offset="1" stop-color="#e7eaee"/>
    </linearGradient>
    <linearGradient id="linear-gradient-2" x1="0.787" y1="0.09" x2="0.265" y2="0.836" gradientUnits="objectBoundingBox">
      <stop offset="0" stop-color="#f2f2f2"/>
      <stop offset="0.25" stop-color="#e7eaee"/>
      <stop offset="0.5" stop-color="#b3c5d1"/>
      <stop offset="1" stop-color="#99adc2"/>
    </linearGradient>
  </defs>
  <g id="그룹_2264" data-name="그룹 2264" transform="translate(11576.438 -11912)">
    <g id="그룹_2099" data-name="그룹 2099">
      <g id="구성_요소_36_110" data-name="구성 요소 36 – 110" transform="translate(-11576.438 11912)">
        <g id="그룹_1121" data-name="그룹 1121" transform="translate(0)">
          <circle id="타원_438" data-name="타원 438" cx="16.63" cy="16.63" r="16.63" transform="translate(0 23.518) rotate(-45)" fill="url(#linear-gradient)"/>
          <path id="패스_987" data-name="패스 987" d="M15.85,0A15.85,15.85,0,1,1,0,15.85,15.85,15.85,0,0,1,15.85,0Z" transform="translate(1.103 23.518) rotate(-45)" fill="#4070f4"/>
          <path id="패스_970" data-name="패스 970" d="M520.547,37.236A14.748,14.748,0,0,0,505.8,51.984c0,.015,0,.029,0,.044a14.66,14.66,0,1,1,14.7,14.7h.044a14.748,14.748,0,0,0,0-29.5Z" transform="translate(-497.029 -28.466)" opacity="0.25" fill="url(#linear-gradient-2)" style="mix-blend-mode: soft-light;isolation: isolate"/>
        </g>
      </g>
      <g id="그룹_2094" data-name="그룹 2094" transform="translate(-11562.047 11925.325)">
        <path id="패스_1450" data-name="패스 1450" d="M2892.363,760.793c.183-.551.35-1.05.515-1.549.1-.31.2-.622.307-.932a2.773,2.773,0,0,1,5.377.447,2.923,2.923,0,0,1-.547,2.287,1.535,1.535,0,0,1-.714.571c-.969.346-1.938.7-2.914,1.023-.62.208-1.252.381-1.88.564a.45.45,0,0,1-.246.015c-1.46-.465-2.905-.98-4.379-1.394-1.93-.542-2.331-3.25-.918-4.627a2.772,2.772,0,0,1,4.569,1.116c.257.758.5,1.518.757,2.277C2892.308,760.642,2892.327,760.693,2892.363,760.793Zm.439,1.429c.48-.146.917-.268,1.347-.412q1.36-.458,2.712-.94a.923.923,0,0,0,.362-.231,2.06,2.06,0,0,0-.252-2.979,1.9,1.9,0,0,0-2.959.914c-.278.808-.539,1.622-.808,2.433C2893.075,761.4,2892.946,761.786,2892.8,762.222Zm-.907,0a.513.513,0,0,0,0-.075c-.4-1.213-.788-2.432-1.213-3.637a1.9,1.9,0,0,0-2.489-1.111,2.045,2.045,0,0,0-1.115,2.514,1.47,1.47,0,0,0,.971,1.045c.451.14.887.325,1.336.471C2890.211,761.7,2891.044,761.955,2891.894,762.224Z" transform="translate(-2883.384 -756.407)" fill="#fff"/>
        <path id="패스_1451" data-name="패스 1451" d="M2939.979,1047c1.119.432,2.191.839,3.257,1.264a1.193,1.193,0,0,0,.943-.006c1.011-.4,2.033-.775,3.052-1.158.076-.028.153-.049.266-.085.015.361.04.7.042,1.039.008,1.225.01,2.45.012,3.675a.729.729,0,0,1-.579.833c-.921.349-1.844.693-2.762,1.049a1.348,1.348,0,0,1-1.017.005c-.932-.361-1.867-.711-2.8-1.069-.436-.167-.532-.312-.532-.784,0-1.344,0-2.688.007-4.031A5.09,5.09,0,0,1,2939.979,1047Z" transform="translate(-2934.724 -1034.038)" fill="#fff"/>
        <path id="패스_1452" data-name="패스 1452" d="M2938.5,927.417c0,.371,0,.742,0,1.113a.561.561,0,0,1-.38.57c-1.215.469-2.429.942-3.652,1.389a.924.924,0,0,1-.584-.028c-1.167-.428-2.327-.875-3.488-1.322a.611.611,0,0,1-.462-.674c0-.683,0-1.365,0-2.048a.763.763,0,0,1,.525-.768q1.665-.649,3.325-1.313a1.12,1.12,0,0,1,.863,0c1.095.431,2.193.854,3.289,1.281.464.181.564.334.563.837,0,.319,0,.638,0,.957Z" transform="translate(-2925.243 -916.767)" fill="#fff"/>
        <path id="패스_1453" data-name="패스 1453" d="M2828.026,884.5c-.277-.073-.526-.118-.761-.2-.675-.245-1.344-.5-2.014-.762a.633.633,0,0,1-.5-.719q0-1.2,0-2.4c0-.407.106-.537.49-.7.617-.257,1.2-.529,1.876-.826l1.158-.508c.662.214,1.276.394,1.91.609.186.063.312.115.5.183.425.17.316.115.887.338l.451.176c-.075.031-.607.248-.681.274-1.016.367-2.031.737-3.05,1.1a.3.3,0,0,0-.237.334c.01.853.005,1.707,0,2.56C2828.064,884.119,2828.042,884.287,2828.026,884.5Z" transform="translate(-2824.753 -872.939)" fill="#fff"/>
        <path id="패스_1454" data-name="패스 1454" d="M3068,884.5c.277-.073.526-.118.761-.2.674-.245,1.344-.5,2.014-.762a.633.633,0,0,0,.5-.719q0-1.2,0-2.4c0-.407-.106-.537-.49-.7-.618-.257-1.2-.529-1.876-.826l-1.158-.508c-.663.214-1.276.394-1.911.609-.186.063-.312.115-.5.183-.425.17-.316.115-.887.338l-.452.176c.075.031.607.248.681.274,1.017.367,2.031.737,3.05,1.1a.3.3,0,0,1,.237.334c-.01.853,0,1.707,0,2.56C3067.966,884.119,3067.989,884.287,3068,884.5Z" transform="translate(-3053.327 -872.939)" fill="#fff"/>
        <path id="패스_1455" data-name="패스 1455" d="M3145.666,1010.649v.986q0,1.9,0,3.808a.622.622,0,0,1-.494.717c-.757.3-1.517.588-2.315.9-.026-.288-.068-.55-.07-.812-.008-1.336-.005-2.672-.007-4.009a.682.682,0,0,1,.458-.714c.764-.281,1.529-.557,2.295-.834C3145.562,1010.678,3145.6,1010.669,3145.666,1010.649Z" transform="translate(-3128.591 -999.309)" fill="#fff"/>
        <path id="패스_1456" data-name="패스 1456" d="M2844.379,1009.565l1.832.7c.228.087.455.178.682.268a.539.539,0,0,1,.365.533c0,1.462-.008,2.923-.025,4.385a.942.942,0,0,1-.153.382.163.163,0,0,1-.146.042c-.206-.057-.412-.119-.612-.194-.464-.175-.926-.353-1.386-.539a.785.785,0,0,1-.536-.768c-.005-.512-.019-1.023-.021-1.535C2844.377,1011.762,2844.379,1010.687,2844.379,1009.565Z" transform="translate(-2843.503 -998.274)" fill="#fff"/>
      </g>
    </g>
  </g>
</svg>
