<svg xmlns="http://www.w3.org/2000/svg" width="19.721" height="19.722" viewBox="0 0 19.721 19.722">
  <g id="그룹_2304" data-name="그룹 2304" transform="translate(282.39 -13777.02)">
    <g id="그룹_1260" data-name="그룹 1260" transform="translate(-282.39 13777.02)">
      <g id="Symbol_85_1" data-name="Symbol 85 – 1" transform="translate(0 17.929) rotate(-45)">
        <path id="합치기_3" data-name="합치기 3" d="M1,0H24.355a1,1,0,0,1,1,1v.535a1,1,0,0,1-1,1H1a1,1,0,0,1-1-1V1A1,1,0,0,1,1,0Z" transform="translate(0 0)" fill="#fff"/>
      </g>
      <g id="_2" data-name=" 2" transform="translate(1.794 0.002) rotate(45)">
        <path id="합치기_3-2" data-name="합치기 3" d="M1,0H9.154a1,1,0,0,1,1,1v.535a1,1,0,0,1-1,1H1a1,1,0,0,1-1-1V1A1,1,0,0,1,1,0Z" transform="translate(0 0)" fill="#fff"/>
      </g>
      <g id="_6" data-name=" 6" transform="translate(10.794 9.002) rotate(45)">
        <path id="합치기_3-3" data-name="합치기 3" d="M1,0H11.505a1,1,0,0,1,1,1v.535a1,1,0,0,1-1,1H1a1,1,0,0,1-1-1V1A1,1,0,0,1,1,0Z" transform="translate(0 0)" fill="#fff"/>
      </g>
    </g>
  </g>
</svg>
