<svg xmlns="http://www.w3.org/2000/svg" xmlns:xlink="http://www.w3.org/1999/xlink" width="95.695" height="96" viewBox="0 0 95.695 96">
  <defs>
    <filter id="패스_1201" x="0" y="0" width="95.695" height="96" filterUnits="userSpaceOnUse">
      <feOffset dy="3" input="SourceAlpha"/>
      <feGaussianBlur stdDeviation="3" result="blur"/>
      <feFlood flood-opacity="0.161"/>
      <feComposite operator="in" in2="blur"/>
      <feComposite in="SourceGraphic"/>
    </filter>
  </defs>
  <g id="그룹_2266" data-name="그룹 2266" transform="translate(-1025 -817)">
    <g transform="matrix(1, 0, 0, 1, 1025, 817)" filter="url(#패스_1201)">
      <path id="패스_1201-2" data-name="패스 1201" d="M277.688,374.382h5.642c.084.05.164.133.254.145,1.207.167,2.419.3,3.622.489a36.119,36.119,0,0,1,12.214,4.31,38.883,38.883,0,0,1,14.589,14.329,37.469,37.469,0,0,1,4.911,14.04c.148,1.068.3,2.135.455,3.2v5.015q-.227,1.587-.454,3.174a38.111,38.111,0,0,1-5.574,15.08,38.862,38.862,0,0,1-8.486,9.592,37.406,37.406,0,0,1-11.9,6.551A37.883,37.883,0,0,1,278.3,452.3a40.847,40.847,0,0,1-10.3-2.009,38.352,38.352,0,0,1-14.638-9.022,38.773,38.773,0,0,1-8.067-11.413,38.081,38.081,0,0,1-3.6-14.9,48.387,48.387,0,0,1,.417-7.065,35.558,35.558,0,0,1,5.431-15.141,38.524,38.524,0,0,1,17.466-15.108,36.24,36.24,0,0,1,9.715-2.784C275.718,374.719,276.7,374.54,277.688,374.382Zm17.828,27.858c-.085-1.893-.7-2.471-2.071-2.325a10.035,10.035,0,0,0-2.211.471c-3.861,1.339-7.71,2.715-11.56,4.085-4.71,1.677-9.423,3.346-14.12,5.057a8.007,8.007,0,0,0-2.042,1.118,1.892,1.892,0,0,0-.4,2.941,8.241,8.241,0,0,0,2.424,1.891c2.245,1.148,4.56,2.16,6.852,3.215a7.813,7.813,0,0,1,4.265,3.811c1.107,2.47,2.217,4.943,3.46,7.345a13.23,13.23,0,0,0,2.243,3.047,1.537,1.537,0,0,0,2.464-.207A7.39,7.39,0,0,0,286,430.684c.925-2.431,1.8-4.882,2.645-7.342q3-8.714,5.938-17.447C295.03,404.547,295.291,403.136,295.516,402.24Z" transform="translate(-232.68 -368.38)" fill="#58ade7"/>
    </g>
    <path id="빼기_7" data-name="빼기 7" d="M41.8,59.044h0a1.563,1.563,0,0,1-1.122-.527,13.1,13.1,0,0,1-2.244-3.047c-1.251-2.418-2.374-4.923-3.46-7.345a7.87,7.87,0,0,0-4.265-3.812c-.548-.252-1.105-.506-1.645-.751-1.72-.782-3.5-1.591-5.208-2.465a8.227,8.227,0,0,1-2.424-1.891,1.932,1.932,0,0,1-.524-1.477,2.143,2.143,0,0,1,.924-1.464,8.024,8.024,0,0,1,2.042-1.119c3.982-1.45,8.041-2.894,11.967-4.291l2.154-.766,1.292-.46c3.363-1.2,6.839-2.436,10.268-3.625a10.04,10.04,0,0,1,2.21-.472,3.51,3.51,0,0,1,.377-.022c1.128,0,1.619.68,1.694,2.346-.064.253-.131.553-.2.87-.183.811-.41,1.819-.733,2.785-1.837,5.5-3.7,10.95-5.938,17.447-.949,2.758-1.814,5.16-2.644,7.342a7.388,7.388,0,0,1-1.177,2.008A1.779,1.779,0,0,1,41.8,59.044Z" transform="translate(1034 823)" fill="#fff"/>
  </g>
</svg>
