<svg xmlns="http://www.w3.org/2000/svg" width="120" height="120" viewBox="0 0 120 120">
  <g id="그룹_2271" data-name="그룹 2271" transform="translate(-378 -424)">
    <circle id="타원_548" data-name="타원 548" cx="60" cy="60" r="60" transform="translate(378 424)" fill="#fff"/>
    <g id="그룹_2267" data-name="그룹 2267">
      <g id="그룹_2088" data-name="그룹 2088" transform="translate(325.98 108.622)">
        <path id="패스_1446" data-name="패스 1446" d="M79.632,363.727a25.7,25.7,0,0,1,1.67-3.367,10.123,10.123,0,0,1,7.066-4.4,45.8,45.8,0,0,1,15.092.152c7.044,1.258,13.976,2.987,20.887,4.818,7.3,1.934,14.565,4,21.724,6.417,1.183.4,2.334.894,3.5,1.334a1.809,1.809,0,0,1,1.171,1.245,32.45,32.45,0,0,1,.863,3.484,31.209,31.209,0,0,1,.253,8.133c-.237,2.173-.141,2.118-2.168,2.625-.324.081-.654.122-1,.208-.091-.644-.129-1.408-.267-1.993a3.256,3.256,0,0,0-.507-1.194,1.283,1.283,0,0,0-2.294.351,11.828,11.828,0,0,0-.182,3.136,3.224,3.224,0,0,1-.013.425l-.641.132c0-.27.01-.582,0-.84a14.7,14.7,0,0,0-.105-2.371,1.493,1.493,0,0,0-1.512-1.255,1.778,1.778,0,0,0-1.856.961,5.051,5.051,0,0,0-.4,1.606c-.064.89-.017,1.788-.017,2.752l-21.99,4.752c0-.407.016-.773,0-1.136a32.876,32.876,0,0,0-.24-3.885,3.734,3.734,0,0,0-3.83-3.375,10.51,10.51,0,0,0-2.57.142,4.587,4.587,0,0,0-4.017,4.753,43.917,43.917,0,0,0,.352,5.25c.047.485-.017.686-.505.871a44.046,44.046,0,0,1-18.166,2.4,47.056,47.056,0,0,1-12.523-2.582,2.594,2.594,0,0,1-1.409-1.1,10.751,10.751,0,0,1-1.259-3.876c1.254.5,2.508,1.028,3.786,1.493a15.534,15.534,0,0,0,7.461.636c1.954-.261,3.88-.735,5.82-1.1a.659.659,0,0,0,.623-.8c-.046-.589-.046-1.183-.055-1.775-.006-.4-.162-.592-.59-.547-1.932.206-3.867.383-5.8.61a2.71,2.71,0,0,0-2.088,1.275,1.175,1.175,0,0,1-.83.449,14.663,14.663,0,0,1-5.142-.732,1,1,0,0,1-.61-.522,2.782,2.782,0,0,0-2.069-2.028c-.742-.217-.919-.64-.915-1.386a40.285,40.285,0,0,1,1.989-11.552c.64-2.1,1.376-4.172,2.1-6.247a.556.556,0,0,0-.21-.765,1.544,1.544,0,0,0-1.826-.284,2.234,2.234,0,0,0-1.364,2.185,8.646,8.646,0,0,0,.4,1.514,3.515,3.515,0,0,1,.139,2.092,1.744,1.744,0,0,1-1.743,1.288c-.655.032-1.076-.293-1.411-1.088a5.826,5.826,0,0,1,4.189-7.686,6.859,6.859,0,0,1,1.908.117A8.64,8.64,0,0,1,79.632,363.727Zm68.2,10.93h0c.1,0,.2,0,.3,0,.895.037,1.079-.134,1.029-1.042-.039-.708-.176-1.414-.174-2.121a1.613,1.613,0,0,0-1.181-1.632c-1.747-.679-3.464-1.452-5.249-2.012A266.869,266.869,0,0,0,111.786,360c-2.608-.489-5.228-.912-7.845-1.352a1.519,1.519,0,0,0-1.931,1.44c-.042.3-.089.6-.126.9-.47,3.808-.949,7.616-1.4,11.426-.128,1.079.259,1.478,1.361,1.528.118.006.237.01.355.012q6.339.092,12.678.182,5.147.065,10.294.1c2.231.019,4.462,0,6.693.035C137.186,374.365,142.51,374.554,147.834,374.657ZM97.7,360.571a11.808,11.808,0,0,0,.581-1.565c.308-1.36,0-2.182-1.575-2.355a24.3,24.3,0,0,0-8.646.686,8.621,8.621,0,0,0-5.862,4.59,56.613,56.613,0,0,0-4.323,10.967,21.813,21.813,0,0,0-1.014,6.69c.058,1.545.307,1.852,1.781,2.281.243.071.487.144.735.191a39.118,39.118,0,0,0,10.96.416,3.3,3.3,0,0,0,2.972-2.419,48.852,48.852,0,0,0,1.955-6.968c.55-2.525,1.02-5.068,1.518-7.6.188-.956.358-1.917.549-2.947a19.663,19.663,0,0,0-2.025-.445,1.816,1.816,0,0,0-2.019,2.6c.243.648.545,1.277.75,1.937a3.4,3.4,0,0,1-1.023,3.779c-1.465,1.313-3.13.835-3.674-1.047a9.739,9.739,0,0,1,.109-5.8,5.225,5.225,0,0,1,5.742-3.634A21.28,21.28,0,0,1,97.7,360.571Z" fill="#013980"/>
        <g id="그룹_2085" data-name="그룹 2085" transform="translate(109.792 384.049)">
          <path id="패스_1447" data-name="패스 1447" d="M267.949,500.932c-2.206,0-3.994,2.562-3.994,5.722s1.788,5.722,3.994,5.722,3.995-2.562,3.995-5.722S270.155,500.932,267.949,500.932Zm0,7.966c-.746,0-1.35-1-1.35-2.244s.6-2.244,1.35-2.244,1.351,1,1.351,2.244S268.7,508.9,267.949,508.9Z" transform="translate(-263.955 -500.932)" fill="#013980"/>
        </g>
        <g id="그룹_2086" data-name="그룹 2086" transform="translate(141.444 381.526)">
          <path id="패스_1448" data-name="패스 1448" d="M426.191,488.11c-.771,0-1.4,1.461-1.4,3.263s.625,3.263,1.4,3.263,1.4-1.461,1.4-3.263S426.961,488.11,426.191,488.11Zm0,4.368c-.261,0-.472-.495-.472-1.1s.212-1.1.472-1.1.473.495.473,1.1S426.452,492.478,426.191,492.478Z" transform="translate(-424.795 -488.11)" fill="#013980"/>
        </g>
        <g id="그룹_2087" data-name="그룹 2087" transform="translate(145.74 381.309)">
          <path id="패스_1449" data-name="패스 1449" d="M447.868,487.008c-.686,0-1.243,1.3-1.243,2.905s.556,2.905,1.243,2.905,1.243-1.3,1.243-2.905S448.554,487.008,447.868,487.008Zm0,3.889c-.232,0-.421-.44-.421-.984s.188-.983.421-.983.421.44.421.983S448.1,490.9,447.868,490.9Z" transform="translate(-446.625 -487.008)" fill="#013980"/>
        </g>
      </g>
    </g>
  </g>
</svg>
