<svg xmlns="http://www.w3.org/2000/svg" width="120" height="120" viewBox="0 0 120 120">
  <g id="그룹_2272" data-name="그룹 2272" transform="translate(-726 -424)">
    <circle id="타원_549" data-name="타원 549" cx="60" cy="60" r="60" transform="translate(726 424)" fill="#fff"/>
    <g id="그룹_2268" data-name="그룹 2268">
      <g id="그룹_2089" data-name="그룹 2089" transform="translate(-2065.888 -302.407)">
        <path id="패스_1450" data-name="패스 1450" d="M2905.153,769.783c.56-1.68,1.068-3.2,1.572-4.723.314-.947.619-1.9.937-2.843a8.457,8.457,0,0,1,16.4,1.362,8.91,8.91,0,0,1-1.669,6.973,4.679,4.679,0,0,1-2.175,1.742c-2.957,1.054-5.91,2.121-8.886,3.12-1.89.634-3.817,1.162-5.733,1.721a1.376,1.376,0,0,1-.75.046c-4.453-1.417-8.861-2.989-13.357-4.253-5.884-1.654-7.106-9.911-2.8-14.111a8.452,8.452,0,0,1,13.933,3.4c.784,2.31,1.541,4.629,2.311,6.943C2904.987,769.322,2905.045,769.477,2905.153,769.783Zm1.339,4.359c1.466-.446,2.8-.817,4.109-1.258q4.149-1.4,8.273-2.868a2.8,2.8,0,0,0,1.1-.7,6.282,6.282,0,0,0-.769-9.084,5.8,5.8,0,0,0-9.022,2.788c-.847,2.464-1.644,4.946-2.463,7.419C2907.329,771.624,2906.933,772.813,2906.492,774.142Zm-2.767,0a1.24,1.24,0,0,0,0-.229c-1.226-3.7-2.4-7.418-3.7-11.093a5.809,5.809,0,0,0-7.591-3.389,6.239,6.239,0,0,0-3.4,7.666,4.484,4.484,0,0,0,2.961,3.186c1.374.427,2.706.991,4.075,1.438C2898.595,772.547,2901.133,773.328,2903.725,774.146Z" transform="translate(-53.022)" fill="#013980"/>
        <path id="패스_1451" data-name="패스 1451" d="M2940.225,1047c3.411,1.319,6.682,2.56,9.931,3.855a3.637,3.637,0,0,0,2.874-.017c3.085-1.221,6.2-2.363,9.308-3.532.229-.086.467-.15.812-.26.046,1.1.12,2.134.127,3.167.024,3.736.027,7.472.033,11.208a2.222,2.222,0,0,1-1.764,2.541c-2.808,1.065-5.622,2.115-8.423,3.2a4.107,4.107,0,0,1-3.1.017c-2.843-1.1-5.7-2.17-8.544-3.259-1.33-.509-1.622-.95-1.622-2.391,0-4.1-.012-8.2.022-12.295A15.6,15.6,0,0,1,2940.225,1047Z" transform="translate(-99.449 -251.064)" fill="#013980"/>
        <path id="패스_1452" data-name="패스 1452" d="M2956.055,933.9c0,1.132,0,2.263,0,3.395a1.712,1.712,0,0,1-1.159,1.74c-3.705,1.432-7.407,2.873-11.137,4.237a2.818,2.818,0,0,1-1.781-.086c-3.559-1.3-7.1-2.67-10.636-4.03a1.863,1.863,0,0,1-1.409-2.056c0-2.082,0-4.164.011-6.246a2.326,2.326,0,0,1,1.6-2.343q5.078-1.981,10.139-4a3.417,3.417,0,0,1,2.634.014c3.339,1.315,6.688,2.6,10.031,3.908,1.413.551,1.721,1.019,1.715,2.553,0,.973,0,1.946,0,2.919Z" transform="translate(-90.875 -145.015)" fill="#013980"/>
        <path id="패스_1453" data-name="패스 1453" d="M2834.736,897.042c-.844-.222-1.6-.361-2.321-.621-2.057-.748-4.1-1.54-6.142-2.325a1.928,1.928,0,0,1-1.515-2.193q-.01-3.666,0-7.332c0-1.24.325-1.637,1.494-2.124,1.883-.784,3.66-1.614,5.721-2.519l3.532-1.549c2.021.653,3.892,1.2,5.827,1.856.566.192.949.35,1.539.557,1.3.52.963.35,2.706,1.03l1.376.537c-.229.1-1.853.756-2.077.837-3.1,1.12-6.194,2.249-9.3,3.344a.907.907,0,0,0-.723,1.02c.031,2.6.016,5.205,0,7.808C2834.852,895.883,2834.784,896.4,2834.736,897.042Z" transform="translate(-0.001 -105.381)" fill="#013980"/>
        <path id="패스_1454" data-name="패스 1454" d="M3076.217,897.042c.844-.222,1.6-.361,2.32-.621,2.057-.748,4.1-1.54,6.142-2.325a1.928,1.928,0,0,0,1.515-2.193q.01-3.666,0-7.332c0-1.24-.325-1.637-1.494-2.124-1.884-.784-3.66-1.614-5.722-2.519l-3.532-1.549c-2.021.653-3.892,1.2-5.827,1.856-.566.192-.949.35-1.539.557-1.3.52-.963.35-2.706,1.03l-1.376.537c.229.1,1.852.756,2.076.837,3.1,1.12,6.195,2.249,9.3,3.344a.907.907,0,0,1,.724,1.02c-.031,2.6-.016,5.205,0,7.808C3076.1,895.883,3076.168,896.4,3076.217,897.042Z" transform="translate(-206.703 -105.381)" fill="#013980"/>
        <path id="패스_1455" data-name="패스 1455" d="M3151.588,1010.649c0,1.065,0,2.037,0,3.009q0,5.807-.009,11.614a1.9,1.9,0,0,1-1.5,2.188c-2.312.9-4.627,1.794-7.062,2.737-.079-.879-.209-1.677-.214-2.475-.024-4.075-.015-8.15-.022-12.225a2.081,2.081,0,0,1,1.4-2.177c2.33-.858,4.665-1.7,7-2.543C3151.273,1010.738,3151.38,1010.712,3151.588,1010.649Z" transform="translate(-274.765 -219.659)" fill="#013980"/>
        <path id="패스_1456" data-name="패스 1456" d="M2844.381,1009.565c1.931.739,3.759,1.436,5.585,2.137.7.267,1.388.542,2.08.816a1.641,1.641,0,0,1,1.113,1.625c-.007,4.457-.024,8.915-.077,13.372a2.869,2.869,0,0,1-.468,1.166.5.5,0,0,1-.442.126c-.629-.174-1.257-.363-1.867-.592-1.415-.532-2.825-1.076-4.226-1.644a2.393,2.393,0,0,1-1.634-2.343c-.016-1.56-.056-3.121-.062-4.681C2844.374,1016.267,2844.381,1012.987,2844.381,1009.565Z" transform="translate(-16.957 -218.722)" fill="#013980"/>
      </g>
    </g>
  </g>
</svg>
