<svg xmlns="http://www.w3.org/2000/svg" width="120" height="120" viewBox="0 0 120 120">
  <g id="그룹_2273" data-name="그룹 2273" transform="translate(-1074 -424)">
    <circle id="타원_550" data-name="타원 550" cx="60" cy="60" r="60" transform="translate(1074 424)" fill="#fff"/>
    <g id="그룹_2269" data-name="그룹 2269">
      <g id="그룹_2092" data-name="그룹 2092">
        <path id="패스_1462" data-name="패스 1462" d="M4794.216-205.058l14.266,6.412v18.6l-14.266-6.411v-18.6m-1.955-3.021v22.886l18.176,8.168v-22.886l-18.176-8.168Z" transform="translate(-3682.685 672.415)" fill="#013980"/>
        <path id="패스_1463" data-name="패스 1463" d="M4813.6-227.09l13.315,6L4813.6-215.1l-13.291-5.993m13.284-8.145-18.036,8.147,18.041,8.134,18.068-8.134-18.073-8.147Z" transform="translate(-3684.371 683.234)" fill="#013980" stroke="rgba(0,0,0,0)" stroke-width="1"/>
        <path id="패스_1464" data-name="패스 1464" d="M4819.018-173.411v6.8l15.168,6.453-2.673,1.2-13.959-6.091-7.849,3.411,14.151,6.128-3.011,1.356-14.009-6.112-7.847,3.41,14.2,6.15-2,.9v-.083l-40.333-17.552-8.422,3.87v5.33l40.335,17.552,8.419-3.87v-3.5l23.029-10.371v3.08l6.409-2.928v-5.359ZM4774.5-154.13l-10.625-4.565v-3.487l10.625,4.565Zm26,11.509-12.617-5.421v-3.487l12.617,5.421Z" transform="translate(-3667.427 654.685)" fill="#013980"/>
        <g id="그룹_2091" data-name="그룹 2091" transform="translate(1130.732 464.336)">
          <path id="패스_1465" data-name="패스 1465" d="M4835.559-199.911l0,22.886,18.18-8.168v-22.886Zm3.588,19.824-2.031.913-.046-2.435-.687.313,1.672-2.433,1.744.894-.7.313Zm3.9-1.716-2.032.913-.045-2.435-.687.313,1.672-2.433,1.745.894-.7.313Z" transform="translate(-4835.559 208.079)" fill="#013980"/>
        </g>
      </g>
    </g>
  </g>
</svg>
