<svg xmlns="http://www.w3.org/2000/svg" width="120" height="120" viewBox="0 0 120 120">
  <g id="그룹_2274" data-name="그룹 2274" transform="translate(-1422 -424)">
    <circle id="타원_551" data-name="타원 551" cx="60" cy="60" r="60" transform="translate(1422 424)" fill="#fff"/>
    <g id="그룹_2270" data-name="그룹 2270">
      <g id="그룹_2090" data-name="그룹 2090" transform="translate(-2441.051 563.136)">
        <path id="패스_1457" data-name="패스 1457" d="M4081.87,45.8l33.463-9.361,3.591,13.967-4.454,1.247-20.923,5.875c-1.583.444-3.169.881-4.75,1.334a.885.885,0,0,1-.873-.194c-.865-.625-1.821-1.122-2.714-1.713a1.507,1.507,0,0,1-.623-.746C4083.664,52.755,4082.776,49.294,4081.87,45.8Z" transform="translate(-163.317 -124.592)" fill="#013980"/>
        <path id="패스_1458" data-name="패스 1458" d="M4056.209-35.786l-3.595-13.977L4074.927-56c1.192,4.647,2.375,9.258,3.585,13.976Z" transform="translate(-138.278 -45.475)" fill="#013980"/>
        <path id="패스_1459" data-name="패스 1459" d="M3917.14-68.505l-3.591,1.021-4.2-16.358q-2.732-10.636-5.451-21.275c-.116-.456-.308-.571-.732-.547-.527.03-1.056.007-1.585.007-.814,0-1.6-.122-2.184.775a2.034,2.034,0,0,1-1.474.583,46.2,46.2,0,0,1-4.874-.064,2.282,2.282,0,0,1-1.989-2.55,2.338,2.338,0,0,1,2.381-2.2c1.489-.005,2.981-.058,4.466.028a5.665,5.665,0,0,1,1.624.616,2.767,2.767,0,0,0,.855.347c1.993.031,3.987.029,5.98.007.458-.005.7.127.821.585q1.749,6.9,3.52,13.788,3.177,12.414,6.354,24.828C3917.1-68.756,3917.123-68.591,3917.14-68.505Z" transform="translate(0 0)" fill="#013980"/>
        <path id="패스_1460" data-name="패스 1460" d="M4038.176,197.567c-.055,5.046-2.958,8.5-7.205,9.052a7.893,7.893,0,0,1-8.222-4.919,8.474,8.474,0,0,1,3.594-10.929,7.739,7.739,0,0,1,9.984,2.077A8.114,8.114,0,0,1,4038.176,197.567Zm-4.616.827a3.525,3.525,0,0,0-3.439-3.648,3.649,3.649,0,0,0-3.46,3.66,3.559,3.559,0,0,0,3.637,3.536A3.426,3.426,0,0,0,4033.56,198.395Z" transform="translate(-112.073 -255.816)" fill="#013980"/>
        <path id="패스_1461" data-name="패스 1461" d="M4145.048,175.481l-.957-3.8,26.676-7.46c.374,1.244.738,2.462,1.123,3.745Z" transform="translate(-216.57 -233.963)" fill="#013980"/>
      </g>
    </g>
  </g>
</svg>
