<svg xmlns="http://www.w3.org/2000/svg" width="14.223" height="14.578" viewBox="0 0 14.223 14.578">
  <g id="그룹_2280" data-name="그룹 2280" transform="translate(9320.223 -9365)">
    <path id="패스_1202" data-name="패스 1202" d="M104.934.521,104.916.5a1.926,1.926,0,0,0-2.721.123L95.311,8.163a.665.665,0,0,0-.14.238l-.809,2.427a.923.923,0,0,0,.874,1.215h0a.919.919,0,0,0,.371-.078l2.344-1.025a.664.664,0,0,0,.224-.161l6.884-7.536A1.928,1.928,0,0,0,104.934.521ZM95.912,10.38l.475-1.424.04-.044.9.822-.04.044Zm8.164-8.034L98.224,8.753l-.9-.822,5.852-6.407a.6.6,0,0,1,.843-.038l.019.017A.6.6,0,0,1,104.076,2.346Z" transform="translate(-9411.561 9365)" fill="#fff"/>
    <path id="패스_1203" data-name="패스 1203" d="M13.073,36.673a.616.616,0,0,0-.61.623v5.288a1.569,1.569,0,0,1-1.55,1.584H3.526a1.569,1.569,0,0,1-1.55-1.584V35.1a1.569,1.569,0,0,1,1.55-1.584H8.873a.623.623,0,0,0,0-1.246H3.526A2.8,2.8,0,0,0,.757,35.1v7.488a2.8,2.8,0,0,0,2.769,2.83h7.387a2.8,2.8,0,0,0,2.769-2.83V37.3A.616.616,0,0,0,13.073,36.673Z" transform="translate(-9320.979 9334.164)" fill="#fff"/>
  </g>
</svg>
