<svg id="그룹_771" data-name="그룹 771" xmlns="http://www.w3.org/2000/svg" width="54.981" height="66.808" viewBox="0 0 54.981 66.808">
  <path id="패스_490" data-name="패스 490" d="M201.564,259.334V260.5c0,13.1-.052,26.2.026,39.3a9.126,9.126,0,0,1-6.511,9.072,9.23,9.23,0,0,1-2.293.332c-9.834.017-19.668.057-29.5-.025a8.7,8.7,0,0,1-8.428-8.571c-.056-12.537-.03-25.074-.036-37.611,0-.468-.036-.939.008-1.4.14-1.5-.005-2.613-1.725-3.4-2.015-.923-2.794-3.547-2.192-5.651a5.317,5.317,0,0,1,5.171-3.951c3.143-.028,6.286-.021,9.429,0a1.387,1.387,0,0,0,1.235-.608,14.545,14.545,0,0,1,22.909.032,1.379,1.379,0,0,0,1.25.574c3.143-.018,6.287-.053,9.429.007a5.1,5.1,0,0,1,4.856,3.191,4.866,4.866,0,0,1-.945,5.625A16.766,16.766,0,0,1,201.564,259.334Zm-42.886-.1v1.014q0,19.795,0,39.589c0,3.483,2.125,5.585,5.6,5.586q13.915,0,27.83,0c3.472,0,5.6-2.108,5.6-5.584q.01-19.794,0-39.589c0-.329-.032-.657-.051-1.015Zm19.469-3.93h21.278c.342,0,.685.012,1.026-.008a1.294,1.294,0,0,0,1.339-1.279,1.382,1.382,0,0,0-1.2-1.521,4.872,4.872,0,0,0-.745-.017H156.726a7.651,7.651,0,0,0-.839.011,1.4,1.4,0,0,0-1.305,1.438,1.345,1.345,0,0,0,1.354,1.37c.279.019.56.007.84.007Zm-6.383-6.789h12.872C181.239,245.63,175.038,245.678,171.765,248.51Z" transform="translate(-150.714 -242.416)" fill="#adadad"/>
  <path id="패스_491" data-name="패스 491" d="M237.421,377.285q0-7.764,0-15.528a5.943,5.943,0,0,1,.055-1.025,1.91,1.91,0,0,1,3.715-.076,4.315,4.315,0,0,1,.073.93q0,15.762,0,31.524c0,1.294-.428,1.969-1.384,2.259a1.879,1.879,0,0,1-2.418-1.529,7.479,7.479,0,0,1-.04-1.027Q237.42,385.049,237.421,377.285Z" transform="translate(-221.197 -337.37)" fill="#adadad"/>
  <path id="패스_492" data-name="패스 492" d="M337.162,377.385q0-7.811,0-15.622a5.3,5.3,0,0,1,.078-1.116,1.909,1.909,0,0,1,3.714.093,5.427,5.427,0,0,1,.051.932q0,15.668-.005,31.337a3.961,3.961,0,0,1-.161,1.284,1.9,1.9,0,0,1-3.63-.447,7.321,7.321,0,0,1-.047-1.026Q337.16,385.1,337.162,377.385Z" transform="translate(-302.275 -337.37)" fill="#adadad"/>
  <path id="패스_493" data-name="패스 493" d="M287.3,377.294q0-7.717,0-15.434a6.57,6.57,0,0,1,.057-1.118,1.9,1.9,0,0,1,3.726.022,6.181,6.181,0,0,1,.053,1.025q0,15.574,0,31.148a5.865,5.865,0,0,1-.058,1.025,1.9,1.9,0,0,1-3.728-.022,6.153,6.153,0,0,1-.054-1.025Q287.3,385.1,287.3,377.294Z" transform="translate(-261.746 -337.383)" fill="#adadad"/>
</svg>
