<svg xmlns="http://www.w3.org/2000/svg" xmlns:xlink="http://www.w3.org/1999/xlink" width="191" height="190" viewBox="0 0 191 190">
  <defs>
    <filter id="패스_1382" x="0" y="0" width="191" height="190" filterUnits="userSpaceOnUse">
      <feOffset dy="3" input="SourceAlpha"/>
      <feGaussianBlur stdDeviation="3" result="blur"/>
      <feFlood flood-opacity="0.161"/>
      <feComposite operator="in" in2="blur"/>
      <feComposite in="SourceGraphic"/>
    </filter>
  </defs>
  <g id="그룹_2275" data-name="그룹 2275" transform="translate(6352 -8909)">
    <g transform="matrix(1, 0, 0, 1, -6352, 8909)" filter="url(#패스_1382)">
      <path id="패스_1382-2" data-name="패스 1382" d="M86.5,0C134.273,0,173,38.5,173,86s-38.727,86-86.5,86S0,133.5,0,86,38.727,0,86.5,0Z" transform="translate(9 6)" fill="#2a94d9"/>
    </g>
    <ellipse id="타원_524" data-name="타원 524" cx="21.5" cy="21.5" rx="21.5" ry="21.5" transform="translate(-6278 8958.002)" fill="#fff"/>
    <path id="패스_1305" data-name="패스 1305" d="M43,10C19.35,10,0,19.675,0,31.5V42.25H86V31.5C86,19.675,66.649,10,43,10Z" transform="translate(-6300 9001.751)" fill="#fff"/>
  </g>
</svg>
